<?xml version="1.0" encoding="utf-8"?>
<svg xmlns="http://www.w3.org/2000/svg" viewBox="0 0 30 30" fill="#000000"><path d="M 26 4 A 1 1 0 0 0 25.800781 4.0214844 L 25.798828 4.0195312 L 16.484375 5.2890625 C 16.063375 5.3460625 15.75 5.7078125 15.75 6.1328125 L 15.75 13 C 15.75 13.552 16.198 14 16.75 14 L 26 14 C 26.552 14 27 13.552 27 13 L 27 5 A 1 1 0 0 0 26 4 z M 12.775391 5.7949219 L 3.8691406 7.0097656 A 1 1 0 0 0 3 8 L 3 13 C 3 13.552 3.448 14 4 14 L 12.742188 14 C 13.294187 14 13.742188 13.552 13.742188 13 L 13.742188 6.6386719 C 13.742188 6.1226719 13.287391 5.7249219 12.775391 5.7949219 z M 4 16 C 3.448 16 3 16.448 3 17 L 3 22 A 1 1 0 0 0 3.9003906 22.994141 L 12.775391 24.205078 C 13.287391 24.275078 13.742188 23.877328 13.742188 23.361328 L 13.742188 17 C 13.742188 16.448 13.294187 16 12.742188 16 L 4 16 z M 16.75 16 C 16.198 16 15.75 16.448 15.75 17 L 15.75 23.867188 C 15.75 24.292187 16.063375 24.653938 16.484375 24.710938 L 25.798828 25.980469 A 1 1 0 0 0 25.800781 25.980469 A 1 1 0 0 0 26 26 A 1 1 0 0 0 27 25 L 27 17 C 27 16.448 26.552 16 26 16 L 16.75 16 z" fill="#000000"/></svg>
